<svg width="102" height="102" viewBox="0 0 102 102" fill="none" xmlns="http://www.w3.org/2000/svg">
<path d="M7.48914 35.0999L51.113 9.62012L94.7368 35.0999" stroke="white" stroke-width="0.270492" stroke-miterlimit="10"/>
<path d="M7.48914 31.0686L51.113 5.58887L94.7368 31.0686" stroke="white" stroke-width="0.270492" stroke-miterlimit="10"/>
<path d="M7.48914 67.8028L51.113 93.2825L94.7369 67.8028V34.6798L83.5828 18.4826L51.113 4.72217L22.2167 15.0409L7.48914 34.6798V67.8028Z" fill="url(#paint0_linear_2037_1027)"/>
<path d="M57.1915 3.82397L50.911 7.50437L45.4282 4.30129" stroke="white" stroke-width="0.270492" stroke-miterlimit="10"/>
<path d="M61.4245 5.3999L50.9174 11.5359L41.4152 5.98409" stroke="white" stroke-width="0.270492" stroke-miterlimit="10"/>
<path d="M65.7141 6.90796L50.8861 15.5748L37.3767 7.68044" stroke="white" stroke-width="0.270492" stroke-miterlimit="10"/>
<path d="M69.6581 8.63477L50.8861 19.6004L32.522 8.87335" stroke="white" stroke-width="0.270492" stroke-miterlimit="10"/>
<path d="M73.5459 10.3933L50.8863 23.6325L28.5089 10.5629" stroke="white" stroke-width="0.270492" stroke-miterlimit="10"/>
<path d="M76.9319 12.4532L50.8871 27.6644L24.4338 12.2146" stroke="white" stroke-width="0.270492" stroke-miterlimit="10"/>
<path d="M80.5556 14.3689L50.887 31.6967L20.9418 14.2119" stroke="white" stroke-width="0.270492" stroke-miterlimit="10"/>
<path d="M83.7075 16.5857L50.8861 35.7599L18.3849 16.7741" stroke="white" stroke-width="0.270492" stroke-miterlimit="10"/>
<path d="M86.5476 18.9536L50.9187 39.7606L16.031 19.3869" stroke="white" stroke-width="0.270492" stroke-miterlimit="10"/>
<path d="M88.6938 21.7039L50.8858 43.7922L13.9189 22.2" stroke="white" stroke-width="0.270492" stroke-miterlimit="10"/>
<path d="M90.5288 24.6685L50.8868 47.8243L11.8037 24.9949" stroke="white" stroke-width="0.270492" stroke-miterlimit="10"/>
<path d="M92.2931 27.6702L50.8864 51.8625L9.14636 27.4819" stroke="white" stroke-width="0.270492" stroke-miterlimit="10"/>
<path d="M94.5043 30.4028L50.8868 55.8826L7.2627 30.4028" stroke="white" stroke-width="0.270492" stroke-miterlimit="10"/>
<path d="M94.5043 34.4473L50.8868 59.9207L7.2627 34.4473" stroke="white" stroke-width="0.270492" stroke-miterlimit="10"/>
<path d="M94.5043 38.4727L50.8868 63.9523L7.2627 38.4727" stroke="white" stroke-width="0.270492" stroke-miterlimit="10"/>
<path d="M94.5043 42.5117L50.8868 67.9915L7.2627 42.5117" stroke="white" stroke-width="0.270492" stroke-miterlimit="10"/>
<path d="M94.5043 46.5435L50.8868 72.0232L7.2627 46.5435" stroke="white" stroke-width="0.270492" stroke-miterlimit="10"/>
<path d="M94.5043 50.5752L50.8868 76.0485L7.2627 50.5752" stroke="white" stroke-width="0.270492" stroke-miterlimit="10"/>
<path d="M94.5043 54.6016L50.8868 80.0813L7.2627 54.6016" stroke="white" stroke-width="0.270492" stroke-miterlimit="10"/>
<path d="M94.5043 58.6646L50.8868 84.1506L7.2627 58.6646" stroke="white" stroke-width="0.270492" stroke-miterlimit="10"/>
<path d="M94.5043 62.6719L50.8868 88.1516L7.2627 62.6719" stroke="white" stroke-width="0.270492" stroke-miterlimit="10"/>
<path d="M94.5043 66.7036L50.8868 92.1834L7.2627 66.7036" stroke="white" stroke-width="0.270492" stroke-miterlimit="10"/>
<path d="M94.5105 68.2171L50.8866 42.75L7.2627 68.2171L8.68298 73.4363L28.928 94.0586L50.8866 99.1294L75.3281 93.0526L94.5105 73.3169V68.2171Z" fill="url(#paint1_linear_2037_1027)"/>
<path d="M39.6165 98.7967L51.113 92.1519L62.5448 98.9446" stroke="white" stroke-width="0.270492" stroke-miterlimit="10"/>
<path d="M34.8239 97.6724L51.0931 88.1514L66.3614 97.2582" stroke="white" stroke-width="0.270492" stroke-miterlimit="10"/>
<path d="M31.9822 95.4035L51.1314 84.1255L69.9418 95.2755" stroke="white" stroke-width="0.270492" stroke-miterlimit="10"/>
<path d="M28.8113 93.1164L51.1005 80.0615L73.699 93.2341" stroke="white" stroke-width="0.270492" stroke-miterlimit="10"/>
<path d="M25.7009 90.8903L51.1127 76.0547L75.9476 90.601" stroke="white" stroke-width="0.270492" stroke-miterlimit="10"/>
<path d="M23.0786 88.4513L51.1122 72.0229L78.9653 88.2643" stroke="white" stroke-width="0.270492" stroke-miterlimit="10"/>
<path d="M20.428 85.8427L54.4113 65.9966L85.4594 84.1991" stroke="white" stroke-width="0.270492" stroke-miterlimit="10"/>
<path d="M18.3257 83.0381L51.0877 63.9653L85.0003 83.7964" stroke="white" stroke-width="0.270492" stroke-miterlimit="10"/>
<path d="M12.8517 82.2789L51.112 59.9268L87.1604 81.0745" stroke="white" stroke-width="0.270492" stroke-miterlimit="10"/>
<path d="M13.759 77.7071L51.1135 55.8696L89.7635 78.5302" stroke="white" stroke-width="0.270492" stroke-miterlimit="10"/>
<path d="M11.8868 74.7897L51.1129 51.8628L92.3782 75.7232" stroke="white" stroke-width="0.270492" stroke-miterlimit="10"/>
<path d="M7.48914 73.3103L51.113 47.8242L94.7368 73.3103" stroke="white" stroke-width="0.270492" stroke-miterlimit="10"/>
<path d="M7.48914 69.2721L51.113 43.7988L94.7368 69.2721" stroke="white" stroke-width="0.270492" stroke-miterlimit="10"/>
<path fill-rule="evenodd" clip-rule="evenodd" d="M96.45 51.4771C96.45 76.5785 76.1015 96.9271 51 96.9271C25.8985 96.9271 5.55001 76.5785 5.55001 51.4771C5.55001 26.3756 25.8985 6.02707 51 6.02707C76.1015 6.02707 96.45 26.3756 96.45 51.4771ZM51 2.32373C78.1512 2.32373 100.153 24.3259 100.153 51.4771C100.153 78.6282 78.1413 100.63 51 100.63C23.8488 100.63 1.84668 78.6183 1.84668 51.4771C1.84668 24.3259 23.8488 2.32373 51 2.32373Z" fill="#F2F1F0"/>
<path d="M93.5173 51.4766C93.5173 74.9604 74.4836 93.9941 50.9998 93.9941C27.516 93.9941 8.48224 74.9604 8.48224 51.4766C8.48224 27.9928 27.516 8.95905 50.9998 8.95905C74.4836 8.95905 93.5173 27.9928 93.5173 51.4766ZM97.5207 51.4766C97.5207 25.7873 76.6891 4.95571 50.9998 4.95571C25.3006 4.95571 4.47891 25.7873 4.47891 51.4766C4.47891 77.1659 25.3105 97.9975 50.9998 97.9975C76.6891 97.9975 97.5207 77.1659 97.5207 51.4766Z" fill="url(#paint2_linear_2037_1027)" stroke="black" stroke-width="0.3" stroke-linejoin="round"/>
<g opacity="0.15">
<path opacity="0.15" d="M21.4426 31.46H80.5583C82.4459 31.46 83.975 32.9785 83.975 34.8766V72.7545C83.975 74.6421 82.4459 76.1711 80.5583 76.1711H21.4426C19.555 76.1711 18.026 74.6526 18.026 72.7545V34.866C18.026 32.989 19.555 31.46 21.4426 31.46Z" fill="#1F1D20"/>
</g>
<g filter="url(#filter0_dddd_2037_1027)">
<path d="M21.4426 29.3076H80.5583C82.4459 29.3076 83.975 30.8261 83.975 32.7242V70.6022C83.975 72.4897 82.4459 74.0188 80.5583 74.0188H21.4426C19.555 74.0188 18.026 72.5003 18.026 70.6022V32.7137C18.026 30.8261 19.555 29.3076 21.4426 29.3076Z" fill="url(#paint3_linear_2037_1027)"/>
</g>
<path d="M18.703 32.7158C18.703 31.2049 19.9262 29.987 21.4424 29.987H80.5581C82.073 29.987 83.2975 31.2036 83.2975 32.7263V70.6043C83.2975 72.1178 82.0717 73.3436 80.5581 73.3436H21.4424C19.9275 73.3436 18.703 72.127 18.703 70.6043V32.7158ZM21.4424 28.6325C19.1835 28.6325 17.3485 30.4514 17.3485 32.7158V70.6043C17.3485 72.8778 19.1822 74.6981 21.4424 74.6981H80.5581C82.8197 74.6981 84.652 72.8659 84.652 70.6043V32.7263C84.652 30.4528 82.8184 28.6325 80.5581 28.6325H21.4424Z" fill="#A3A3A3" stroke="black" stroke-width="0.3"/>
<path d="M31.3024 71.5424C31.2195 71.5424 31.1524 71.6095 31.1524 71.6924V73.487C31.1524 73.5698 31.2195 73.637 31.3024 73.637H39.1057C39.6841 73.637 40.153 73.1681 40.153 72.5897C40.153 72.0113 39.6841 71.5424 39.1057 71.5424H31.3024Z" fill="#D6D6D6" stroke="black" stroke-width="0.3" stroke-linejoin="round"/>
<path d="M31.4982 71.6924V71.5297L31.336 71.5429L29.1775 71.7189C28.8401 71.7464 28.5803 72.0282 28.5803 72.3667V72.8666C28.5803 73.2113 28.8495 73.4961 29.1937 73.5155L31.3397 73.6368L31.4982 73.6457V73.487V71.6924Z" fill="#010E42" stroke="black" stroke-width="0.3"/>
<g filter="url(#filter1_dddd_2037_1027)">
<path d="M72.8002 62.778V62.7773L72.8002 26.2646L72.8002 26.264C72.7974 25.3251 72.4232 24.4256 71.7594 23.7617C71.0955 23.0979 70.1959 22.7237 69.2571 22.721H69.2564L32.7438 22.721L32.7431 22.721C31.8043 22.7237 30.9047 23.0979 30.2409 23.7617C29.577 24.4256 29.2028 25.3251 29.2001 26.264V26.2646L29.2001 62.7773L29.2001 62.778C29.2029 63.7168 29.577 64.6164 30.2409 65.2802C30.9047 65.9441 31.8043 66.3183 32.7431 66.321H32.7438L69.2564 66.321L69.2571 66.321C70.1959 66.3183 71.0955 65.9441 71.7594 65.2803C72.4232 64.6164 72.7974 63.7168 72.8002 62.778Z" fill="url(#paint4_linear_2037_1027)" stroke="black" stroke-width="0.448688"/>
<path d="M39.1376 52.0454C39.5565 52.0454 39.8961 51.7058 39.8961 51.2869C39.8961 50.8679 39.5565 50.5283 39.1376 50.5283C38.7186 50.5283 38.379 50.8679 38.379 51.2869C38.379 51.7058 38.7186 52.0454 39.1376 52.0454Z" fill="white"/>
<path d="M41.0387 40.2926C41.0387 40.2926 40.9679 40.2117 40.9376 40.1611C40.9073 40.1105 40.9073 40.06 40.9073 39.9993V38.7047C40.6746 38.5934 40.4825 38.4215 40.3409 38.199C40.1993 37.9866 40.1285 37.7337 40.1386 37.4708C40.1285 37.2786 40.1487 37.0966 40.2094 36.9145C40.2701 36.7325 40.3712 36.5706 40.5027 36.429C40.6342 36.2874 40.7859 36.1762 40.9578 36.1054C41.1298 36.0346 41.3219 35.9941 41.504 35.9941C41.686 35.9941 41.8782 36.0346 42.0501 36.1054C42.2221 36.1762 42.3839 36.2874 42.5053 36.429C42.6368 36.5706 42.7278 36.7325 42.7986 36.9145C42.8593 37.0966 42.8896 37.2786 42.8694 37.4708C42.8694 37.8045 42.748 38.1181 42.5356 38.3709C42.3131 38.6238 42.0097 38.7755 41.686 38.8261V39.8172L50.6774 47.6859L50.1717 48.2725L41.0286 40.2825L41.0387 40.2926ZM42.1007 37.4809C42.1007 37.4 42.1007 37.309 42.0805 37.228C42.0501 37.1471 42.0097 37.0763 41.9591 37.0055C41.8984 36.9449 41.8377 36.8943 41.7568 36.8538C41.6759 36.8235 41.595 36.8033 41.5141 36.8033C41.4332 36.8033 41.3422 36.8235 41.2714 36.8538C41.1904 36.8842 41.1298 36.9347 41.0691 37.0055C41.0084 37.0662 40.9679 37.1471 40.9477 37.228C40.9174 37.309 40.9174 37.3899 40.9275 37.4809C40.9477 37.6326 41.0185 37.7641 41.1197 37.8652C41.2309 37.9664 41.3725 38.0169 41.5242 38.0169C41.6759 38.0169 41.8175 37.9664 41.9288 37.8652C42.04 37.7641 42.1108 37.6326 42.1209 37.4809H42.1007Z" fill="url(#paint5_linear_2037_1027)"/>
<path d="M38.8948 40.4753C38.8948 40.4753 38.824 40.3944 38.7936 40.3438C38.7734 40.2932 38.7633 40.2427 38.7633 40.182V34.4979C38.7633 34.4372 38.7734 34.3765 38.8038 34.326C38.8341 34.2754 38.8644 34.2248 38.915 34.1945L40.2703 33.1831C40.2096 33.0213 40.1692 32.8493 40.1692 32.6774C40.1692 32.374 40.2703 32.0807 40.4625 31.8379C40.6546 31.5952 40.9176 31.4334 41.2109 31.3626C41.5042 31.2918 41.8177 31.3221 42.0908 31.4435C42.3639 31.5648 42.5965 31.7874 42.728 32.0503C42.8696 32.3234 42.91 32.6268 42.8595 32.9302C42.7988 33.2337 42.6471 33.4966 42.4145 33.6989C42.1818 33.9012 41.8986 34.0124 41.5952 34.0327C41.2918 34.0529 40.9884 33.9619 40.7457 33.7899L39.5219 34.6901V40.01L50.981 50.3162L50.4551 50.8826L38.8847 40.4652L38.8948 40.4753ZM41.5447 33.264C41.6256 33.264 41.7065 33.2539 41.7773 33.2235C41.8481 33.1932 41.9189 33.1527 41.9694 33.0921C42.0301 33.0415 42.0706 32.9707 42.1009 32.8999C42.1313 32.8291 42.1515 32.7482 42.1515 32.6673C42.1515 32.5864 42.1515 32.4953 42.1313 32.4144C42.1009 32.3335 42.0605 32.2627 42.0099 32.1919C41.9492 32.1312 41.8885 32.0807 41.8076 32.0402C41.7267 32.0099 41.6458 31.9896 41.5649 31.9896C41.484 31.9896 41.3929 32.0099 41.3221 32.0402C41.2412 32.0705 41.1704 32.1211 41.1199 32.1919C41.0592 32.2526 41.0187 32.3335 40.9985 32.4144C40.9682 32.4953 40.9682 32.5762 40.9783 32.6673C40.9783 32.7482 40.9985 32.8291 41.0288 32.8999C41.0592 32.9707 41.1098 33.0415 41.1603 33.0921C41.221 33.1426 41.2817 33.1932 41.3626 33.2235C41.4334 33.2539 41.5143 33.264 41.5952 33.264H41.575H41.5447Z" fill="url(#paint6_linear_2037_1027)"/>
<path d="M36.9531 41.1328C36.9531 41.1328 36.8823 41.0519 36.852 41.0013C36.8318 40.9508 36.8217 40.9002 36.8217 40.8395V31.211C36.8217 31.1503 36.8318 31.0896 36.8621 31.039C36.8925 30.9885 36.9329 30.9379 36.9734 30.9076L40.1188 28.5105C40.0076 28.3083 39.957 28.0858 39.9469 27.8531C39.9469 27.5497 40.0379 27.2564 40.22 27.0238C40.402 26.781 40.6549 26.6091 40.9482 26.5282C41.2415 26.4473 41.5449 26.4675 41.8281 26.5687C42.1113 26.6799 42.3439 26.8822 42.4956 27.135C42.6473 27.3879 42.7181 27.6913 42.6878 27.9947C42.6574 28.2981 42.526 28.5712 42.3136 28.7937C42.1113 29.0162 41.8382 29.1578 41.5348 29.2084C41.2415 29.259 40.9381 29.2084 40.665 29.0668L37.5802 31.3829V40.6473L50.9813 52.592L50.4654 53.1685L36.9531 41.1328ZM41.9191 27.8632C41.9191 27.7823 41.9191 27.6913 41.8989 27.6104C41.8685 27.5295 41.8281 27.4587 41.7775 27.3879C41.7168 27.3272 41.6561 27.2766 41.5752 27.2362C41.4943 27.2058 41.4134 27.1856 41.3325 27.1856C41.2516 27.1856 41.1606 27.2058 41.0898 27.2362C41.0089 27.2665 40.9482 27.3171 40.8875 27.3879C40.8268 27.4486 40.7863 27.5295 40.7661 27.6104C40.7358 27.6913 40.7358 27.7722 40.7459 27.8632C40.7661 28.015 40.8369 28.1464 40.9381 28.2476C41.0493 28.3487 41.1909 28.3993 41.3426 28.3993C41.4943 28.3993 41.6359 28.3487 41.7472 28.2476C41.8584 28.1464 41.9292 28.015 41.9393 27.8632H41.9191Z" fill="url(#paint7_linear_2037_1027)"/>
<path d="M35.466 38.0384V40.9816L50.9505 54.6355L50.4448 55.212L34.8288 41.4468C34.8288 41.4468 34.758 41.3659 34.7276 41.3153C34.7074 41.2648 34.6973 41.2142 34.6973 41.1535V38.0687C34.3838 37.9777 34.1107 37.7754 33.9286 37.4922C33.7466 37.2192 33.6758 36.8854 33.7263 36.5516C33.7769 36.228 33.9387 35.9246 34.1815 35.7122C34.4343 35.4998 34.7479 35.3784 35.0816 35.3784C35.4154 35.3784 35.7289 35.4998 35.9818 35.7122C36.2346 35.9246 36.3964 36.228 36.4369 36.5516C36.4875 36.8753 36.4066 37.2091 36.2346 37.4922C36.0526 37.7653 35.7795 37.9777 35.466 38.0687V38.0283V38.0384ZM35.0816 36.137C34.9603 36.137 34.849 36.1673 34.7479 36.2381C34.6467 36.3089 34.5759 36.3999 34.5254 36.5112C34.4748 36.6224 34.4647 36.7438 34.495 36.8551C34.5152 36.9764 34.5759 37.0776 34.6568 37.1585C34.7377 37.2394 34.849 37.3001 34.9603 37.3203C35.0816 37.3405 35.203 37.3304 35.3041 37.29C35.4154 37.2394 35.5064 37.1686 35.5772 37.0675C35.648 36.9663 35.6783 36.8551 35.6783 36.7337C35.6783 36.6528 35.6682 36.5719 35.6379 36.5011C35.6075 36.4303 35.5671 36.3595 35.5064 36.2988C35.4457 36.2381 35.385 36.1977 35.3142 36.1673C35.2434 36.137 35.1625 36.1167 35.0816 36.1167V36.137Z" fill="url(#paint8_linear_2037_1027)"/>
<path d="M34.9197 42.8019H35.1827C35.1827 42.8019 35.2737 42.8019 35.3243 42.8222C35.3648 42.8424 35.4052 42.8626 35.4457 42.893L50.9504 56.6075L50.4346 57.1739L35.0411 43.5605H34.8692C34.7782 43.7931 34.6366 44.0055 34.4343 44.1572C34.2421 44.3089 34.0095 44.4101 33.7566 44.4404C33.5038 44.4707 33.2611 44.4404 33.0284 44.3393C32.7958 44.2381 32.6036 44.0763 32.462 43.874C32.3204 43.6717 32.2395 43.429 32.2193 43.1761C32.1991 42.9233 32.2598 42.6806 32.371 42.458C32.4823 42.2355 32.6643 42.0535 32.8767 41.922C33.0891 41.7905 33.3318 41.7197 33.5847 41.7197C33.8982 41.7197 34.1915 41.831 34.4343 42.0231C34.677 42.2153 34.8489 42.4884 34.9197 42.7817V42.8019ZM33.5847 42.5086C33.4633 42.5086 33.3521 42.539 33.2509 42.6098C33.1498 42.6704 33.0689 42.7716 33.0284 42.8828C32.9779 42.9941 32.9677 43.1155 32.988 43.2368C33.0082 43.3582 33.0689 43.4593 33.1498 43.5504C33.2307 43.6313 33.342 43.692 33.4633 43.7122C33.5847 43.7324 33.7061 43.7223 33.8173 43.6717C33.9286 43.6212 34.0196 43.5504 34.0904 43.4492C34.1511 43.3481 34.1915 43.2267 34.1915 43.1155C34.1915 42.9536 34.1309 42.8019 34.0196 42.6907C33.9083 42.5794 33.7566 42.5187 33.5948 42.5187L33.5847 42.5086Z" fill="url(#paint9_linear_2037_1027)"/>
<path d="M31.6727 59.3389C31.9458 59.3389 32.2088 59.4198 32.4313 59.5715C32.6538 59.7232 32.8359 59.9356 32.937 60.1884C33.0381 60.4413 33.0685 60.7144 33.0179 60.9773C32.9673 61.2403 32.8359 61.4931 32.6437 61.6853C32.4515 61.8775 32.2088 62.009 31.9357 62.0595C31.6626 62.1101 31.3896 62.0899 31.1468 61.9786C30.894 61.8775 30.6816 61.6954 30.5299 61.4729C30.3782 61.2504 30.2972 60.9773 30.2972 60.7144C30.2972 60.3503 30.4388 59.9963 30.7018 59.7434C30.9547 59.4906 31.3086 59.3389 31.6727 59.3389ZM31.6727 61.3111C31.8346 61.3111 31.9863 61.2504 32.0975 61.1392C32.2088 61.0279 32.2695 60.8762 32.2695 60.7144C32.2695 60.593 32.2391 60.4817 32.1683 60.3806C32.1076 60.2795 32.0065 60.1986 31.8953 60.1581C31.784 60.1075 31.6626 60.0974 31.5413 60.1176C31.4199 60.1379 31.3188 60.1986 31.2277 60.2795C31.1468 60.3604 31.0861 60.4716 31.0659 60.593C31.0457 60.7144 31.0558 60.8357 31.1064 60.947C31.1569 61.0582 31.2277 61.1493 31.3289 61.2201C31.43 61.2808 31.5514 61.3212 31.6626 61.3212L31.6727 61.3111Z" fill="url(#paint10_linear_2037_1027)"/>
<path d="M59.5476 38.1594C59.9665 38.1594 60.3062 37.8198 60.3062 37.4009C60.3062 36.9819 59.9665 36.6423 59.5476 36.6423C59.1287 36.6423 58.7891 36.9819 58.7891 37.4009C58.7891 37.8198 59.1287 38.1594 59.5476 38.1594Z" fill="white"/>
<path d="M61.9149 52.0454C62.3339 52.0454 62.6735 51.7058 62.6735 51.2869C62.6735 50.8679 62.3339 50.5283 61.9149 50.5283C61.496 50.5283 61.1564 50.8679 61.1564 51.2869C61.1564 51.7058 61.496 52.0454 61.9149 52.0454Z" fill="white"/>
<path d="M60.0126 40.2926C60.0126 40.2926 60.0834 40.2117 60.1138 40.1611C60.134 40.1105 60.1441 40.06 60.1441 39.9993V38.7047C60.3767 38.5934 60.5689 38.4215 60.7105 38.199C60.8521 37.9866 60.9229 37.7337 60.9128 37.4708C60.9229 37.2786 60.9027 37.0966 60.842 36.9145C60.7813 36.7325 60.6802 36.5706 60.5487 36.429C60.4172 36.2874 60.2655 36.1762 60.0935 36.1054C59.9216 36.0346 59.7294 35.9941 59.5474 35.9941C59.3653 35.9941 59.1732 36.0346 59.0012 36.1054C58.8293 36.1762 58.6675 36.2874 58.5461 36.429C58.4146 36.5706 58.3236 36.7325 58.2528 36.9145C58.1921 37.0966 58.1618 37.2786 58.182 37.4708C58.182 37.8045 58.3034 38.1181 58.5158 38.3709C58.7383 38.6238 59.0417 38.7755 59.3653 38.8261V39.8172L49.9391 47.9995L50.4448 48.5861L60.0126 40.2825V40.2926ZM58.9507 37.4809C58.9507 37.4 58.9507 37.309 58.9709 37.228C59.0012 37.1471 59.0417 37.0763 59.0923 37.0055C59.1529 36.9449 59.2136 36.8943 59.2945 36.8538C59.3755 36.8235 59.4564 36.8033 59.5373 36.8033C59.6182 36.8033 59.7092 36.8235 59.78 36.8538C59.8609 36.8842 59.9216 36.9347 59.9823 37.0055C60.043 37.0662 60.0834 37.1471 60.1037 37.228C60.134 37.309 60.134 37.3899 60.1239 37.4809C60.1037 37.6326 60.0329 37.7641 59.9317 37.8652C59.8205 37.9664 59.6789 38.0169 59.5272 38.0169C59.3755 38.0169 59.2339 37.9664 59.1226 37.8652C59.0113 37.7641 58.9405 37.6326 58.9304 37.4809H58.9507Z" fill="url(#paint11_linear_2037_1027)"/>
<path d="M62.1671 40.4753C62.1671 40.4753 62.2379 40.3944 62.2683 40.3438C62.2885 40.2932 62.2986 40.2427 62.2986 40.182V34.4979C62.2986 34.4372 62.2885 34.3765 62.2581 34.326C62.2278 34.2754 62.1975 34.2248 62.1469 34.1945L60.7916 33.1831C60.8523 33.0213 60.8927 32.8493 60.8927 32.6774C60.8927 32.374 60.7916 32.0807 60.5994 31.8379C60.4073 31.5952 60.1443 31.4334 59.851 31.3626C59.5577 31.2918 59.2442 31.3221 58.9711 31.4435C58.698 31.5648 58.4654 31.7874 58.3339 32.0503C58.1923 32.3234 58.1519 32.6268 58.2024 32.9302C58.2631 33.2337 58.4148 33.4966 58.6474 33.6989C58.8801 33.9012 59.1633 34.0124 59.4667 34.0327C59.7701 34.0529 60.0735 33.9619 60.3162 33.7899L61.54 34.6901V40.01L49.9797 50.2656L50.5057 50.832L62.1772 40.4652L62.1671 40.4753ZM59.5172 33.264C59.4363 33.264 59.3655 33.2539 59.2846 33.2235C59.2138 33.1932 59.143 33.1527 59.0925 33.0921C59.0318 33.0415 58.9913 32.9707 58.961 32.8999C58.9306 32.8291 58.9104 32.7482 58.9104 32.6673C58.9104 32.5864 58.9104 32.4953 58.9306 32.4144C58.961 32.3335 59.0014 32.2627 59.052 32.1919C59.1127 32.1312 59.1734 32.0807 59.2543 32.0402C59.3352 32.0099 59.4161 31.9896 59.497 31.9896C59.5779 31.9896 59.669 32.0099 59.7398 32.0402C59.8207 32.0705 59.8813 32.1211 59.942 32.1919C60.0027 32.2526 60.0432 32.3335 60.0634 32.4144C60.0937 32.4953 60.0937 32.5762 60.0836 32.6673C60.0836 32.7482 60.0634 32.8291 60.0331 32.8999C60.0027 32.9707 59.9521 33.0415 59.9016 33.0921C59.8409 33.1426 59.7802 33.1932 59.6993 33.2235C59.6285 33.2539 59.5476 33.264 59.4667 33.264H59.4869H59.5172Z" fill="url(#paint12_linear_2037_1027)"/>
<path d="M64.0987 41.1328C64.0987 41.1328 64.1695 41.0519 64.1998 41.0013C64.22 40.9508 64.2302 40.9002 64.2302 40.8395V31.211C64.2302 31.1503 64.22 31.0896 64.1897 31.039C64.1594 30.9885 64.1189 30.9379 64.0784 30.9076L60.933 28.5105C61.0442 28.3083 61.0948 28.0858 61.1049 27.8531C61.1049 27.5497 61.0139 27.2564 60.8318 27.0238C60.6498 26.781 60.3969 26.6091 60.1036 26.5282C59.8103 26.4473 59.5069 26.4675 59.2237 26.5687C58.9405 26.6799 58.7079 26.8822 58.5562 27.135C58.4045 27.3879 58.3337 27.6913 58.364 27.9947C58.3944 28.2981 58.5259 28.5712 58.7383 28.7937C58.9405 29.0162 59.2136 29.1578 59.517 29.2084C59.8103 29.259 60.1138 29.2084 60.3868 29.0668L63.4716 31.3829V40.6473L49.929 52.6223L50.4448 53.1988L64.0987 41.1328ZM59.1327 27.8632C59.1327 27.7823 59.1327 27.6913 59.1529 27.6104C59.1833 27.5295 59.2237 27.4587 59.2743 27.3879C59.335 27.3272 59.3957 27.2766 59.4766 27.2362C59.5575 27.2058 59.6384 27.1856 59.7193 27.1856C59.8002 27.1856 59.8912 27.2058 59.962 27.2362C60.043 27.2665 60.1036 27.3171 60.1643 27.3879C60.225 27.4486 60.2655 27.5295 60.2857 27.6104C60.316 27.6913 60.316 27.7722 60.3059 27.8632C60.2857 28.015 60.2149 28.1464 60.1138 28.2476C60.0025 28.3487 59.8609 28.3993 59.7092 28.3993C59.5575 28.3993 59.4159 28.3487 59.3046 28.2476C59.1934 28.1464 59.1226 28.015 59.1125 27.8632H59.1327Z" fill="url(#paint13_linear_2037_1027)"/>
<path d="M65.5049 38.1491V41.0923L50.0204 54.7462L50.5261 55.3227L66.1421 41.5474C66.1421 41.5474 66.2129 41.4665 66.2432 41.4159C66.2635 41.3654 66.2736 41.3148 66.2736 41.2541V38.1693C66.5871 38.0783 66.8602 37.876 67.0423 37.5928C67.2243 37.3198 67.2951 36.986 67.2445 36.6522C67.194 36.3286 67.0321 36.0252 66.7894 35.8128C66.5366 35.6004 66.223 35.479 65.8893 35.479C65.5555 35.479 65.242 35.6004 64.9891 35.8128C64.7363 36.0252 64.5744 36.3286 64.534 36.6522C64.4834 36.9759 64.5643 37.3096 64.7363 37.5928C64.9183 37.8659 65.1914 38.0783 65.5049 38.1693V38.1289V38.1491ZM65.8893 36.2477C66.0106 36.2477 66.1219 36.278 66.223 36.3488C66.3242 36.4196 66.395 36.5106 66.4455 36.6219C66.4961 36.7331 66.5062 36.8545 66.4759 36.9658C66.4556 37.0871 66.395 37.1883 66.314 37.2692C66.2331 37.3501 66.1219 37.4108 66.0106 37.431C65.8893 37.4512 65.7679 37.4411 65.6667 37.4007C65.5555 37.3501 65.4645 37.2793 65.3937 37.1782C65.3229 37.077 65.2925 36.9658 65.2925 36.8444C65.2925 36.7635 65.3026 36.6826 65.333 36.6118C65.3633 36.541 65.4038 36.4702 65.4645 36.4095C65.5252 36.3488 65.5858 36.3084 65.6566 36.278C65.7274 36.2477 65.8083 36.2274 65.8893 36.2274V36.2477Z" fill="url(#paint14_linear_2037_1027)"/>
<path d="M66.1414 42.8019H65.8784C65.8784 42.8019 65.7874 42.8019 65.7368 42.8222C65.6964 42.8424 65.6559 42.8626 65.6155 42.893L49.9691 56.6379L50.4849 57.2043L66.0099 43.5605H66.1819C66.2729 43.7931 66.4145 44.0055 66.6168 44.1572C66.8089 44.3089 67.0416 44.4101 67.2944 44.4404C67.5472 44.4707 67.79 44.4404 68.0226 44.3393C68.2552 44.2381 68.4474 44.0763 68.589 43.874C68.7306 43.6717 68.8115 43.429 68.8317 43.1761C68.852 42.9233 68.7913 42.6806 68.68 42.458C68.5688 42.2355 68.3867 42.0535 68.1743 41.922C67.9619 41.7905 67.7192 41.7197 67.4663 41.7197C67.1528 41.7197 66.8595 41.831 66.6168 42.0231C66.374 42.2153 66.2021 42.4884 66.1313 42.7817L66.1414 42.8019ZM67.4764 42.5086C67.5978 42.5086 67.7091 42.539 67.8102 42.6098C67.9114 42.6704 67.9923 42.7716 68.0327 42.8828C68.0833 42.9941 68.0934 43.1155 68.0732 43.2368C68.0529 43.3582 67.9923 43.4593 67.9114 43.5504C67.8304 43.6313 67.7192 43.692 67.5978 43.7122C67.4765 43.7324 67.3551 43.7223 67.2438 43.6717C67.1326 43.6212 67.0415 43.5504 66.9707 43.4492C66.9101 43.3481 66.8696 43.2267 66.8696 43.1155C66.8696 42.9536 66.9303 42.8019 67.0416 42.6907C67.1528 42.5794 67.3045 42.5187 67.4663 42.5187L67.4764 42.5086Z" fill="url(#paint15_linear_2037_1027)"/>
<path d="M69.3888 59.3379C69.1158 59.3379 68.8528 59.4188 68.6303 59.5705C68.4078 59.7222 68.2257 59.9346 68.1246 60.1875C68.0234 60.4403 67.9931 60.7134 68.0437 60.9764C68.0942 61.2393 68.2257 61.4922 68.4179 61.6843C68.6101 61.8765 68.8528 62.008 69.1259 62.0586C69.3888 62.1091 69.672 62.0889 69.9148 61.9776C70.1676 61.8765 70.38 61.6944 70.5317 61.4719C70.6834 61.2494 70.7643 60.9764 70.7643 60.7134C70.7643 60.3493 70.6227 59.9953 70.3598 59.7424C70.0968 59.4896 69.7529 59.3379 69.3888 59.3379ZM69.3888 61.3101C69.227 61.3101 69.0753 61.2494 68.964 61.1382C68.8528 61.0269 68.7921 60.8752 68.7921 60.7134C68.7921 60.592 68.8225 60.4808 68.8933 60.3796C68.9539 60.2785 69.0551 60.1976 69.1663 60.1571C69.2776 60.1066 69.399 60.0964 69.5203 60.1167C69.6417 60.1369 69.7428 60.1976 69.8339 60.2785C69.9249 60.3594 69.9755 60.4707 69.9957 60.592C70.0159 60.7134 70.0058 60.8348 69.9552 60.946C69.9047 61.0573 69.8339 61.1483 69.7327 61.2191C69.6316 61.2798 69.5102 61.3202 69.399 61.3202L69.3888 61.3101Z" fill="url(#paint16_linear_2037_1027)"/>
<path d="M43.79 61.2392C43.79 61.1785 43.7799 61.1077 43.7496 61.0571C43.7192 60.9964 43.6788 60.956 43.6282 60.9155L37.8026 57.0621C37.8026 56.9913 37.8026 56.9205 37.8026 56.8497C37.7722 56.5058 37.6205 56.1822 37.3677 55.9496C37.1148 55.7169 36.781 55.5854 36.4372 55.5854C36.0933 55.5854 35.7595 55.7169 35.5067 55.9496C35.2538 56.1822 35.092 56.5058 35.0718 56.8497C35.0718 57.1329 35.1527 57.3959 35.3145 57.6285C35.4763 57.8611 35.6988 58.033 35.9517 58.1342C36.2147 58.2353 36.4979 58.2454 36.7709 58.1847C37.044 58.1139 37.2867 57.9724 37.4688 57.76L43.0214 61.4718V65.922H43.8103V61.2392H43.79ZM36.9934 57.1025C36.9631 57.1835 36.9226 57.2543 36.8721 57.3251C36.8215 57.3959 36.7507 57.4363 36.6698 57.4768C36.5889 57.5071 36.508 57.5273 36.4271 57.5273C36.3461 57.5273 36.2551 57.5071 36.1843 57.4768C36.1034 57.4464 36.0326 57.3959 35.982 57.3251C35.9315 57.2543 35.8809 57.1835 35.8607 57.1025C35.8404 57.0216 35.8303 56.9407 35.8404 56.8497C35.8404 56.7688 35.8607 56.698 35.891 56.6171C35.9214 56.5362 35.9618 56.4755 36.0225 56.4249C36.0832 56.3743 36.1439 56.3238 36.2147 56.2934C36.2855 56.2631 36.3664 56.253 36.4473 56.253C36.6091 56.253 36.7608 56.3137 36.8721 56.4249C36.9833 56.5362 37.044 56.6879 37.044 56.8497C37.044 56.9306 37.044 57.0216 37.0238 57.1025H36.9934Z" fill="url(#paint17_linear_2037_1027)"/>
<path d="M42.4455 64.0108C42.4455 63.9501 42.4253 63.8894 42.4051 63.8287C42.3747 63.7782 42.3343 63.7276 42.2837 63.6871L37.8234 60.6529C37.8234 60.6024 37.8234 60.5417 37.8234 60.4911C37.8234 60.127 37.6818 59.7831 37.4189 59.5303C37.166 59.2774 36.812 59.1257 36.458 59.1257C36.1647 59.1257 35.8815 59.2167 35.6489 59.3887L32.9991 57.4873C33.1103 57.285 33.171 57.0524 33.1811 56.8197H33.2013C33.2013 56.5467 33.1204 56.2837 32.9687 56.0511C32.817 55.8286 32.6046 55.6465 32.3518 55.5454C32.0989 55.4442 31.8258 55.4139 31.5528 55.4645C31.2898 55.515 31.0369 55.6465 30.8448 55.8387C30.6526 56.0308 30.5211 56.2736 30.4706 56.5467C30.42 56.8096 30.4503 57.0928 30.5515 57.3457C30.6526 57.5985 30.8347 57.8109 31.0572 57.9626C31.2797 58.1143 31.5528 58.1952 31.8258 58.1952C32.0382 58.1952 32.2506 58.1345 32.4428 58.0334L35.1938 60.0056C35.1331 60.1675 35.1028 60.3293 35.1028 60.5012C35.1028 60.8653 35.2444 61.2193 35.5073 61.4722C35.7602 61.725 36.1142 61.8767 36.4783 61.8767C36.6806 61.8767 36.8727 61.8262 37.0548 61.7452C37.2368 61.6643 37.3986 61.5329 37.52 61.3811L41.687 64.2232V65.9223H42.4556V64.0108H42.4455ZM32.3922 57.0726C32.3619 57.1535 32.3214 57.2243 32.2708 57.2951C32.2102 57.3558 32.1495 57.4063 32.0686 57.4468C31.9877 57.4771 31.9067 57.4974 31.8258 57.4974C31.7449 57.4974 31.6539 57.4771 31.5831 57.4468C31.5123 57.4165 31.4314 57.3659 31.3808 57.2951C31.3201 57.2344 31.2797 57.1535 31.2594 57.0726C31.2291 56.9917 31.2291 56.9108 31.2392 56.8197C31.2392 56.7388 31.2594 56.668 31.2898 56.5871C31.3201 56.5163 31.3606 56.4455 31.4213 56.3949C31.482 56.3444 31.5426 56.2938 31.6134 56.2635C31.6842 56.2331 31.755 56.223 31.8359 56.223H31.8562C31.9371 56.223 32.0079 56.2331 32.0787 56.2635C32.1495 56.2938 32.2203 56.3343 32.281 56.3949C32.3416 56.4455 32.3821 56.5163 32.4124 56.5871C32.4428 56.6579 32.463 56.7388 32.463 56.8197C32.463 56.9006 32.463 56.9917 32.4428 57.0726H32.3922ZM36.8727 60.9159C36.7615 61.0272 36.6098 61.098 36.4479 61.098C36.367 61.098 36.2861 61.0777 36.2153 61.0474C36.1445 61.017 36.0737 60.9766 36.0231 60.9159C35.9726 60.8552 35.922 60.7945 35.8917 60.7237C35.8613 60.6529 35.8411 60.572 35.8411 60.4911C35.8613 60.3394 35.9321 60.2079 36.0333 60.1068C36.1445 60.0056 36.2861 59.9551 36.4378 59.9551C36.5895 59.9551 36.7311 60.0056 36.8424 60.1068C36.9536 60.2079 37.0244 60.3394 37.0447 60.4911C37.0447 60.6529 36.984 60.8046 36.8727 60.9159Z" fill="url(#paint18_linear_2037_1027)"/>
<path d="M37.9237 64.7388C37.9237 64.6478 37.9237 64.5568 37.9237 64.4657C37.9237 64.1926 37.8428 63.9297 37.6911 63.6971C37.5394 63.4746 37.327 63.2925 37.0742 63.1914C36.8213 63.0902 36.5482 63.0599 36.2752 63.1104C36.0122 63.161 35.7594 63.2925 35.5672 63.4847C35.375 63.6768 35.2435 63.9196 35.193 64.1926C35.1424 64.4556 35.1727 64.7388 35.2739 64.9917C35.375 65.2445 35.5571 65.4569 35.7796 65.6086C36.0021 65.7603 36.2752 65.8412 36.5482 65.8412C36.7303 65.8412 36.9123 65.8008 37.0742 65.73C37.2461 65.6592 37.3877 65.558 37.5192 65.4266L38.3688 65.9323H39.8859L37.9136 64.7489L37.9237 64.7388ZM37.1247 64.7186C37.0944 64.7995 37.0539 64.8703 37.0034 64.9411C36.9427 65.0018 36.882 65.0523 36.8011 65.0928C36.7202 65.1231 36.6393 65.1434 36.5584 65.1434C36.4774 65.1434 36.3864 65.1231 36.3156 65.0928C36.2347 65.0625 36.1639 65.0119 36.1133 64.9411C36.0527 64.8804 36.0122 64.7995 35.992 64.7186C35.9616 64.6377 35.9616 64.5568 35.9717 64.4657C35.9717 64.3848 35.992 64.314 36.0223 64.2331C36.0527 64.1623 36.0931 64.0915 36.1538 64.0409C36.2145 63.9904 36.2752 63.9398 36.346 63.9095C36.4168 63.8791 36.4977 63.869 36.5786 63.869C36.6595 63.869 36.7303 63.869 36.8112 63.9095C36.882 63.9398 36.9528 63.9803 37.0034 64.0409C37.0539 64.1016 37.1045 64.1623 37.1349 64.2331C37.1652 64.3039 37.1753 64.3848 37.1753 64.4657C37.1753 64.5466 37.1753 64.6377 37.1551 64.7186H37.1247Z" fill="url(#paint19_linear_2037_1027)"/>
<path d="M58.0503 61.4718L63.6029 57.76C63.7849 57.9724 64.0277 58.1139 64.3007 58.1847C64.5738 58.2555 64.857 58.2353 65.12 58.1342C65.3829 58.033 65.6054 57.8611 65.7572 57.6285C65.919 57.3959 65.9999 57.1228 65.9999 56.8497C65.9695 56.5058 65.8178 56.1822 65.565 55.9496C65.3121 55.7169 64.9784 55.5854 64.6345 55.5854C64.2906 55.5854 63.9569 55.7169 63.704 55.9496C63.4512 56.1822 63.2893 56.5058 63.2691 56.8497C63.2691 56.9205 63.2691 56.9913 63.2691 57.0621L57.4434 60.9155C57.3929 60.956 57.3524 60.9964 57.3221 61.0571C57.2917 61.1178 57.2816 61.1785 57.2816 61.2392V65.922H58.0705V61.4718H58.0503ZM64.1996 56.4249C64.3108 56.3137 64.4626 56.253 64.6244 56.253C64.7053 56.253 64.7862 56.2631 64.857 56.2934C64.9278 56.3238 64.9986 56.3642 65.0492 56.4249C65.1099 56.4755 65.1503 56.5463 65.1807 56.6171C65.211 56.6879 65.2312 56.7688 65.2312 56.8497C65.2312 56.9306 65.2312 57.0216 65.211 57.1025C65.1908 57.1835 65.1402 57.2543 65.0896 57.3251C65.0289 57.3857 64.9683 57.4363 64.8873 57.4768C64.8064 57.5071 64.7255 57.5273 64.6446 57.5273C64.5637 57.5273 64.4727 57.5071 64.4019 57.4768C64.321 57.4464 64.2502 57.3959 64.1996 57.3251C64.149 57.2543 64.0985 57.1835 64.0782 57.1025C64.058 57.0216 64.0479 56.9407 64.058 56.8497C64.058 56.6879 64.1187 56.5362 64.2299 56.4249H64.1996Z" fill="url(#paint20_linear_2037_1027)"/>
<path d="M59.3859 64.2225L63.5528 61.3804C63.6843 61.5321 63.836 61.6535 64.0181 61.7445C64.2001 61.8254 64.3923 61.876 64.5946 61.876C64.9587 61.876 65.3127 61.7344 65.5655 61.4714C65.8184 61.2186 65.9701 60.8646 65.9701 60.5005C65.9701 60.3286 65.9397 60.1667 65.8791 60.0049L68.6301 58.0327C68.8222 58.1338 69.0346 58.1945 69.247 58.1945C69.5201 58.1945 69.7831 58.1136 70.0157 57.9619C70.2382 57.8102 70.4202 57.5978 70.5214 57.3449C70.6225 57.0921 70.6529 56.819 70.6023 56.5459C70.5517 56.283 70.4202 56.0301 70.2281 55.838C70.0359 55.6458 69.7932 55.5143 69.5201 55.4637C69.2571 55.4132 68.9739 55.4334 68.7211 55.5446C68.4682 55.6458 68.2558 55.8278 68.1041 56.0503C67.9524 56.2729 67.8715 56.5459 67.8715 56.819H67.8917C67.8917 57.0516 67.9524 57.2843 68.0738 57.4865L65.4239 59.388C65.1913 59.216 64.9081 59.125 64.6148 59.125C64.2507 59.125 63.9068 59.2666 63.654 59.5296C63.4011 59.7824 63.2494 60.1364 63.2494 60.4904C63.2494 60.541 63.2494 60.6016 63.2494 60.6522L58.7891 63.6864C58.7386 63.7168 58.6981 63.7673 58.6678 63.828C58.6374 63.8786 58.6273 63.9494 58.6273 64.0101V65.9216H59.396V64.2225H59.3859ZM68.6907 56.5965C68.7211 56.5257 68.7717 56.4549 68.8222 56.4043C68.8829 56.3538 68.9436 56.3032 69.0245 56.2729C69.0953 56.2425 69.1762 56.2324 69.247 56.2324H69.2672C69.3482 56.2324 69.419 56.2425 69.4898 56.2729C69.5606 56.3032 69.6314 56.3437 69.6819 56.4043C69.7426 56.4549 69.7831 56.5257 69.8134 56.5965C69.8437 56.6673 69.864 56.7482 69.864 56.8291C69.864 56.91 69.864 57.0011 69.8437 57.082C69.8134 57.1629 69.7729 57.2337 69.7224 57.3045C69.6617 57.3652 69.601 57.4157 69.5201 57.4562C69.4392 57.4865 69.3583 57.5068 69.2774 57.5068C69.1965 57.5068 69.1054 57.4865 69.0346 57.4562C68.9537 57.4258 68.8829 57.3753 68.8323 57.3045C68.7717 57.2438 68.7312 57.1629 68.711 57.082C68.6806 57.0011 68.6806 56.9202 68.6907 56.8291C68.6907 56.7482 68.711 56.6673 68.7413 56.5965H68.6907ZM64.2102 60.1162C64.3215 60.015 64.4631 59.9645 64.6148 59.9645C64.7665 59.9645 64.9081 60.015 65.0194 60.1162C65.1306 60.2173 65.2014 60.3488 65.2216 60.5005C65.2216 60.5814 65.2014 60.6623 65.1711 60.7331C65.1407 60.8039 65.1003 60.8747 65.0396 60.9253C64.9789 60.986 64.9182 61.0264 64.8474 61.0568C64.7766 61.0871 64.6957 61.1073 64.6148 61.1073C64.453 61.1073 64.3013 61.0366 64.19 60.9253C64.0788 60.814 64.0181 60.6623 64.0181 60.5005C64.0383 60.3488 64.1091 60.2173 64.2102 60.1162Z" fill="url(#paint21_linear_2037_1027)"/>
<path d="M63.523 65.4166C63.6444 65.548 63.7961 65.6492 63.968 65.72C64.14 65.7908 64.3119 65.8312 64.494 65.8312C64.7671 65.8312 65.03 65.7503 65.2626 65.5986C65.4953 65.4469 65.6672 65.2345 65.7683 64.9817C65.8695 64.7288 65.8998 64.4557 65.8493 64.1827C65.7987 63.9197 65.6672 63.6668 65.475 63.4747C65.2829 63.2825 65.0401 63.151 64.7671 63.1005C64.5041 63.0499 64.2209 63.0701 63.968 63.1814C63.7152 63.2825 63.5028 63.4646 63.3511 63.6871C63.1994 63.9096 63.1185 64.1827 63.1185 64.4557C63.1185 64.5468 63.1185 64.6378 63.1185 64.7288L61.1462 65.9121H62.6633L63.5129 65.4064L63.523 65.4166ZM63.9478 64.2332C63.9782 64.1624 64.0186 64.0916 64.0793 64.0411C64.1299 63.9804 64.2007 63.9399 64.2715 63.9096C64.3423 63.8792 64.4232 63.859 64.5041 63.859C64.585 63.859 64.6558 63.8792 64.7367 63.9096C64.8075 63.9399 64.8783 63.9804 64.9289 64.0411C64.9896 64.0916 65.03 64.1624 65.0604 64.2332C65.0907 64.304 65.1109 64.3849 65.1109 64.4658C65.1109 64.5468 65.1109 64.6378 65.0907 64.7187C65.0705 64.7996 65.0199 64.8704 64.9693 64.9412C64.9086 65.0019 64.848 65.0525 64.7671 65.0929C64.6861 65.1233 64.6052 65.1435 64.5243 65.1435C64.4434 65.1435 64.3524 65.1233 64.2816 65.0929C64.2007 65.0626 64.1299 65.012 64.0793 64.9412C64.0186 64.8805 63.9782 64.7996 63.9579 64.7187C63.9377 64.6378 63.9276 64.5569 63.9377 64.4658C63.9377 64.3849 63.9478 64.304 63.9782 64.2332H63.9478Z" fill="url(#paint22_linear_2037_1027)"/>
<path d="M47.6029 60.2786V59.9954L42.5662 56.5061V55.0901C42.8291 55.0497 43.0617 54.9283 43.2539 54.7564C43.4461 54.5844 43.5877 54.3518 43.6585 54.099C43.7293 53.8461 43.7191 53.5832 43.6484 53.3303C43.5674 53.0775 43.4258 52.855 43.2236 52.6931C43.0213 52.5212 42.7785 52.4201 42.5156 52.3796C42.2526 52.3493 41.9897 52.3796 41.757 52.501C41.5244 52.6122 41.3221 52.7842 41.1805 53.0067C41.0389 53.2292 40.9681 53.482 40.9681 53.745C40.9681 54.0181 41.0491 54.281 41.2008 54.5035C41.3525 54.726 41.5548 54.9081 41.8076 55.0092V56.7185C41.8076 56.7792 41.8278 56.8399 41.8481 56.9006C41.8784 56.9511 41.9189 57.0017 41.9694 57.0422L46.8747 60.3899L46.8545 65.9121H47.6737L47.613 60.2989L47.6029 60.2786ZM42.2122 54.3316C42.0908 54.3114 41.9897 54.2507 41.8986 54.1698C41.8177 54.0889 41.757 53.9776 41.7368 53.8562C41.7166 53.7349 41.7267 53.6135 41.7773 53.5022C41.8278 53.391 41.8986 53.3 41.9998 53.2292C42.1009 53.1685 42.2223 53.128 42.3335 53.128C42.4954 53.128 42.6471 53.1887 42.7583 53.3C42.8696 53.4112 42.9303 53.5629 42.9303 53.7248C42.9303 53.8461 42.8999 53.9574 42.8291 54.0585C42.7684 54.1597 42.6673 54.2406 42.556 54.281C42.4448 54.3215 42.3234 54.3417 42.202 54.3215L42.2122 54.3316Z" fill="url(#paint23_linear_2037_1027)"/>
<path d="M45.9748 60.9762L45.7928 60.6121L39.5423 56.3541V52.5917C39.8559 52.5007 40.1289 52.2984 40.311 52.0152C40.493 51.7421 40.5638 51.4084 40.5133 51.0746C40.4627 50.7509 40.3009 50.4475 40.0581 50.2351C39.8053 50.0227 39.4918 49.9014 39.158 49.9014C38.8242 49.9014 38.5107 50.0227 38.2579 50.2351C38.005 50.4475 37.8432 50.7509 37.8027 51.0746C37.7623 51.3982 37.8331 51.732 38.005 52.0152C38.1769 52.2984 38.4601 52.5007 38.7737 52.5917V56.5463C38.7737 56.6069 38.7939 56.6676 38.8242 56.7283C38.8546 56.7789 38.895 56.8295 38.9456 56.8699L45.2871 61.1785L45.3073 65.9017H46.0052L45.9849 60.9762H45.9748ZM39.1479 51.8837C39.067 51.8837 38.9861 51.8736 38.9153 51.8433C38.8445 51.8129 38.7737 51.7725 38.7231 51.7118C38.6624 51.6612 38.622 51.5904 38.5916 51.5196C38.5613 51.4488 38.541 51.3679 38.541 51.287C38.541 51.1252 38.6017 50.9735 38.713 50.8622C38.8242 50.7509 38.9759 50.6903 39.1378 50.6903C39.2187 50.6903 39.2895 50.7105 39.3704 50.7408C39.4412 50.7712 39.512 50.8116 39.5626 50.8723C39.6131 50.933 39.6637 50.9937 39.694 51.0645C39.7244 51.1353 39.7345 51.2162 39.7345 51.2971C39.7345 51.378 39.7244 51.4488 39.694 51.5297C39.6637 51.6005 39.6232 51.6713 39.5626 51.7219C39.512 51.7725 39.4412 51.823 39.3704 51.8534C39.2996 51.8837 39.2187 51.8938 39.1378 51.8938L39.1479 51.8837Z" fill="url(#paint24_linear_2037_1027)"/>
<path d="M54.258 60.309L59.0925 57.0219C59.1431 56.9916 59.1835 56.941 59.2139 56.8803C59.2442 56.8298 59.2543 56.759 59.2543 56.6983V54.989C59.4971 54.8777 59.7095 54.7058 59.8612 54.4833C60.0129 54.2608 60.0938 53.9978 60.0938 53.7248C60.0938 53.4618 60.023 53.2089 59.8814 52.9864C59.7398 52.7639 59.5375 52.592 59.3049 52.4807C59.0723 52.3695 58.7992 52.329 58.5464 52.3594C58.2834 52.3897 58.0407 52.501 57.8384 52.6729C57.6361 52.8448 57.4945 53.0673 57.4136 53.3101C57.3327 53.5629 57.3327 53.8259 57.4035 54.0787C57.4743 54.3316 57.6159 54.5642 57.808 54.7362C58.0002 54.9081 58.2429 55.0295 58.4958 55.0699V56.4859L53.8231 59.6516L53.4792 60.046L53.4084 65.8818H54.2075L54.2681 60.2989L54.258 60.309ZM58.2227 54.0686C58.162 53.9675 58.1216 53.8461 58.1216 53.7349C58.1216 53.573 58.1823 53.4213 58.2935 53.3101C58.4048 53.1988 58.5565 53.1381 58.7183 53.1381C58.8397 53.1381 58.9509 53.1685 59.0521 53.2393C59.1532 53.3 59.2341 53.4011 59.2746 53.5124C59.3251 53.6236 59.3353 53.745 59.315 53.8663C59.2948 53.9877 59.2341 54.0889 59.1532 54.1799C59.0723 54.2608 58.961 54.3215 58.8397 54.3417C58.7183 54.3619 58.5969 54.3518 58.4857 54.3013C58.3744 54.2507 58.2834 54.1799 58.2126 54.0787L58.2227 54.0686Z" fill="url(#paint25_linear_2037_1027)"/>
<path d="M62.8049 50.2454C62.5521 50.033 62.2385 49.9116 61.9048 49.9116C61.571 49.9116 61.2575 50.033 61.0046 50.2454C60.7518 50.4578 60.59 50.7612 60.5495 51.0848C60.4989 51.4085 60.5798 51.7423 60.7518 52.0254C60.9338 52.2985 61.2069 52.5109 61.5204 52.6019V56.3644L55.3509 60.5515L55.1183 60.8347L55.1689 65.912H55.8566L55.7757 61.1887L62.1172 56.8802C62.1677 56.8397 62.2082 56.7993 62.2385 56.7386C62.2689 56.688 62.2891 56.6273 62.2891 56.5565V52.6019C62.6026 52.5109 62.8757 52.3086 63.0578 52.0254C63.2398 51.7524 63.3106 51.4186 63.2601 51.0848C63.2095 50.7612 63.0477 50.4578 62.8049 50.2454ZM62.4712 51.5197C62.4408 51.5905 62.4004 51.6613 62.3397 51.7119C62.279 51.7625 62.2183 51.8131 62.1475 51.8434C62.0767 51.8737 61.9958 51.8839 61.9149 51.8839C61.834 51.8839 61.7632 51.8737 61.6823 51.8434C61.6115 51.8131 61.5407 51.7726 61.4901 51.7119C61.4395 51.6613 61.389 51.5905 61.3586 51.5197C61.3283 51.4489 61.3182 51.368 61.3182 51.2871C61.3182 51.2062 61.3283 51.1253 61.3586 51.0545C61.389 50.9837 61.4294 50.9129 61.4901 50.8623C61.5407 50.8017 61.6115 50.7612 61.6823 50.7309C61.7531 50.7005 61.834 50.6803 61.9149 50.6803C62.0767 50.6803 62.2284 50.741 62.3397 50.8522C62.4509 50.9635 62.5116 51.1152 62.5116 51.277C62.5116 51.3579 62.4914 51.4287 62.4611 51.5096L62.4712 51.5197Z" fill="url(#paint26_linear_2037_1027)"/>
</g>
<g filter="url(#filter2_biii_2037_1027)">
<path d="M62.3093 54.7866C62.3093 54.9049 62.2133 55.0009 62.095 55.0009H59.0424C58.9241 55.0009 58.8281 54.9049 58.8281 54.7866V34.8398C58.8281 34.7214 58.9241 34.6255 59.0424 34.6255H62.095C62.2133 34.6255 62.3093 34.7214 62.3093 34.8398V54.7866Z" fill="white"/>
<path d="M62.095 55.174C62.3089 55.174 62.4824 55.0005 62.4824 54.7866V34.8398C62.4824 34.6258 62.3089 34.4524 62.095 34.4524H59.0424C58.8285 34.4524 58.655 34.6258 58.655 34.8398V54.7866C58.655 55.0005 58.8285 55.174 59.0424 55.174H62.095Z" stroke="black" stroke-width="0.346175" stroke-linejoin="round"/>
</g>
<g filter="url(#filter3_biii_2037_1027)">
<path d="M55.9215 54.712C55.9736 54.8519 55.87 55.0009 55.7207 55.0009H52.472C52.3811 55.0009 52.3002 54.9436 52.2699 54.858L50.538 49.9575C50.5077 49.8719 50.4268 49.8147 50.336 49.8147H42.6272C42.5355 49.8147 42.4539 49.8731 42.4244 49.96L40.7612 54.8555C40.7317 54.9424 40.6501 55.0009 40.5584 55.0009H37.3266C37.1771 55.0009 37.0735 54.8515 37.126 54.7115L44.5956 34.7646C44.6269 34.6809 44.7069 34.6255 44.7962 34.6255H48.3067C48.3962 34.6255 48.4763 34.6812 48.5075 34.7651L55.9215 54.712ZM49.2909 47.0582C49.4384 47.0582 49.5417 46.9127 49.4933 46.7735L46.7648 38.9307C46.6809 38.6698 46.5924 38.2529 46.4994 37.6801C46.4968 37.6639 46.4828 37.652 46.4665 37.652C46.4501 37.652 46.4361 37.664 46.4335 37.6801C46.3494 38.2067 46.2562 38.6236 46.1538 38.9307L43.4525 46.7741C43.4046 46.9133 43.508 47.0582 43.6551 47.0582H49.2909Z" fill="white"/>
<path d="M46.6 38.9837L46.6 38.9837L46.6013 38.9876L49.3298 46.8304C49.3391 46.8571 49.3193 46.8851 49.2909 46.8851H43.6551C43.6268 46.8851 43.607 46.8572 43.6162 46.8305L46.3175 38.9871L46.3175 38.9871L46.318 38.9855C46.3694 38.8314 46.4181 38.6523 46.4642 38.4488C46.5101 38.666 46.5553 38.8446 46.6 38.9837ZM55.7207 55.174C55.9907 55.174 56.1778 54.9047 56.0838 54.6517L48.6698 34.7048C48.6134 34.5531 48.4686 34.4524 48.3067 34.4524H44.7962C44.6347 34.4524 44.4901 34.5526 44.4335 34.7039L36.9639 54.6508C36.869 54.904 37.0562 55.174 37.3266 55.174H40.5584C40.7243 55.174 40.8718 55.0683 40.9251 54.9112L42.5883 50.0157C42.5939 49.999 42.6096 49.9878 42.6272 49.9878H50.336C50.3534 49.9878 50.369 49.9988 50.3748 50.0152L52.1067 54.9157C52.1614 55.0705 52.3078 55.174 52.472 55.174H55.7207Z" stroke="black" stroke-width="0.346175" stroke-linejoin="round"/>
</g>
<path fill-rule="evenodd" clip-rule="evenodd" d="M62.8141 55.0012C62.8141 55.2805 62.5877 55.5069 62.3084 55.5069H58.8272C58.5479 55.5069 58.3215 55.2805 58.3215 55.0012V34.6258C58.3215 34.3465 58.5479 34.1201 58.8272 34.1201H62.3084C62.5877 34.1201 62.8141 34.3465 62.8141 34.6258V55.0012ZM62.3084 55.0012V34.6258H58.8272V55.0012H62.3084Z" fill="black"/>
<path fill-rule="evenodd" clip-rule="evenodd" d="M56.4428 55.2898C56.3482 55.4258 56.1931 55.5069 56.0275 55.5069H52.319C52.1047 55.5069 51.9137 55.3718 51.8422 55.1697L50.1285 50.3207H42.8347L41.1893 55.1639C41.1196 55.369 40.9271 55.5069 40.7105 55.5069H37.0162C36.8504 55.5069 36.6951 55.4256 36.6006 55.2893C36.5061 55.1531 36.4845 54.9791 36.5426 54.8238L44.1727 34.4485C44.2467 34.251 44.4354 34.1201 44.6463 34.1201H48.4543C48.6656 34.1201 48.8546 34.2515 48.9283 34.4496L56.5016 54.825C56.5592 54.9802 56.5373 55.1539 56.4428 55.2898ZM42.4724 49.815H50.4861L52.319 55.0012H56.0275L48.4543 34.6258H44.6463L37.0162 55.0012H40.7105L42.4724 49.815ZM46.1981 38.7848C46.2839 38.4918 46.3629 38.1175 46.4351 37.6617C46.4356 37.6586 46.4361 37.6554 46.4366 37.6523H46.4935C46.4939 37.6554 46.4944 37.6584 46.4949 37.6615C46.5738 38.1493 46.6494 38.5254 46.7217 38.7897C46.7357 38.8411 46.7496 38.8882 46.7634 38.9311L49.591 47.0585H43.3533L46.1524 38.9311C46.1679 38.8848 46.1831 38.8361 46.1981 38.7848ZM44.0623 46.5528H48.8796L46.4588 39.5945L44.0623 46.5528Z" fill="black"/>
<defs>
<filter id="filter0_dddd_2037_1027" x="14.026" y="29.3076" width="73.949" height="57.7109" filterUnits="userSpaceOnUse" color-interpolation-filters="sRGB">
<feFlood flood-opacity="0" result="BackgroundImageFix"/>
<feColorMatrix in="SourceAlpha" type="matrix" values="0 0 0 0 0 0 0 0 0 0 0 0 0 0 0 0 0 0 127 0" result="hardAlpha"/>
<feOffset dy="1"/>
<feGaussianBlur stdDeviation="0.5"/>
<feColorMatrix type="matrix" values="0 0 0 0 0 0 0 0 0 0 0 0 0 0 0 0 0 0 0.1 0"/>
<feBlend mode="normal" in2="BackgroundImageFix" result="effect1_dropShadow_2037_1027"/>
<feColorMatrix in="SourceAlpha" type="matrix" values="0 0 0 0 0 0 0 0 0 0 0 0 0 0 0 0 0 0 127 0" result="hardAlpha"/>
<feOffset dy="2"/>
<feGaussianBlur stdDeviation="1"/>
<feColorMatrix type="matrix" values="0 0 0 0 0 0 0 0 0 0 0 0 0 0 0 0 0 0 0.09 0"/>
<feBlend mode="normal" in2="effect1_dropShadow_2037_1027" result="effect2_dropShadow_2037_1027"/>
<feColorMatrix in="SourceAlpha" type="matrix" values="0 0 0 0 0 0 0 0 0 0 0 0 0 0 0 0 0 0 127 0" result="hardAlpha"/>
<feOffset dy="5"/>
<feGaussianBlur stdDeviation="1.5"/>
<feColorMatrix type="matrix" values="0 0 0 0 0 0 0 0 0 0 0 0 0 0 0 0 0 0 0.05 0"/>
<feBlend mode="normal" in2="effect2_dropShadow_2037_1027" result="effect3_dropShadow_2037_1027"/>
<feColorMatrix in="SourceAlpha" type="matrix" values="0 0 0 0 0 0 0 0 0 0 0 0 0 0 0 0 0 0 127 0" result="hardAlpha"/>
<feOffset dy="9"/>
<feGaussianBlur stdDeviation="2"/>
<feColorMatrix type="matrix" values="0 0 0 0 0 0 0 0 0 0 0 0 0 0 0 0 0 0 0.01 0"/>
<feBlend mode="normal" in2="effect3_dropShadow_2037_1027" result="effect4_dropShadow_2037_1027"/>
<feBlend mode="normal" in="SourceGraphic" in2="effect4_dropShadow_2037_1027" result="shape"/>
</filter>
<filter id="filter1_dddd_2037_1027" x="22.9932" y="22.4966" width="56.0138" height="66.4832" filterUnits="userSpaceOnUse" color-interpolation-filters="sRGB">
<feFlood flood-opacity="0" result="BackgroundImageFix"/>
<feColorMatrix in="SourceAlpha" type="matrix" values="0 0 0 0 0 0 0 0 0 0 0 0 0 0 0 0 0 0 127 0" result="hardAlpha"/>
<feOffset dy="1.49563"/>
<feGaussianBlur stdDeviation="0.747813"/>
<feColorMatrix type="matrix" values="0 0 0 0 0 0 0 0 0 0 0 0 0 0 0 0 0 0 0.1 0"/>
<feBlend mode="normal" in2="BackgroundImageFix" result="effect1_dropShadow_2037_1027"/>
<feColorMatrix in="SourceAlpha" type="matrix" values="0 0 0 0 0 0 0 0 0 0 0 0 0 0 0 0 0 0 127 0" result="hardAlpha"/>
<feOffset dy="4.48688"/>
<feGaussianBlur stdDeviation="2.24344"/>
<feColorMatrix type="matrix" values="0 0 0 0 0 0 0 0 0 0 0 0 0 0 0 0 0 0 0.09 0"/>
<feBlend mode="normal" in2="effect1_dropShadow_2037_1027" result="effect2_dropShadow_2037_1027"/>
<feColorMatrix in="SourceAlpha" type="matrix" values="0 0 0 0 0 0 0 0 0 0 0 0 0 0 0 0 0 0 127 0" result="hardAlpha"/>
<feOffset dy="8.97376"/>
<feGaussianBlur stdDeviation="2.99125"/>
<feColorMatrix type="matrix" values="0 0 0 0 0 0 0 0 0 0 0 0 0 0 0 0 0 0 0.05 0"/>
<feBlend mode="normal" in2="effect2_dropShadow_2037_1027" result="effect3_dropShadow_2037_1027"/>
<feColorMatrix in="SourceAlpha" type="matrix" values="0 0 0 0 0 0 0 0 0 0 0 0 0 0 0 0 0 0 127 0" result="hardAlpha"/>
<feOffset dy="16.4519"/>
<feGaussianBlur stdDeviation="2.99125"/>
<feColorMatrix type="matrix" values="0 0 0 0 0 0 0 0 0 0 0 0 0 0 0 0 0 0 0.01 0"/>
<feBlend mode="normal" in2="effect3_dropShadow_2037_1027" result="effect4_dropShadow_2037_1027"/>
<feBlend mode="normal" in="SourceGraphic" in2="effect4_dropShadow_2037_1027" result="shape"/>
</filter>
<filter id="filter2_biii_2037_1027" x="49.2326" y="25.03" width="22.6721" height="39.5665" filterUnits="userSpaceOnUse" color-interpolation-filters="sRGB">
<feFlood flood-opacity="0" result="BackgroundImageFix"/>
<feGaussianBlur in="BackgroundImageFix" stdDeviation="4.62465"/>
<feComposite in2="SourceAlpha" operator="in" result="effect1_backgroundBlur_2037_1027"/>
<feBlend mode="normal" in="SourceGraphic" in2="effect1_backgroundBlur_2037_1027" result="shape"/>
<feColorMatrix in="SourceAlpha" type="matrix" values="0 0 0 0 0 0 0 0 0 0 0 0 0 0 0 0 0 0 127 0" result="hardAlpha"/>
<feOffset dx="0.578081" dy="-0.578081"/>
<feGaussianBlur stdDeviation="0.289041"/>
<feComposite in2="hardAlpha" operator="arithmetic" k2="-1" k3="1"/>
<feColorMatrix type="matrix" values="0 0 0 0 0 0 0 0 0 0 0 0 0 0 0 0 0 0 0.1 0"/>
<feBlend mode="multiply" in2="shape" result="effect2_innerShadow_2037_1027"/>
<feColorMatrix in="SourceAlpha" type="matrix" values="0 0 0 0 0 0 0 0 0 0 0 0 0 0 0 0 0 0 127 0" result="hardAlpha"/>
<feOffset dx="1.15616" dy="-1.15616"/>
<feGaussianBlur stdDeviation="1.73424"/>
<feComposite in2="hardAlpha" operator="arithmetic" k2="-1" k3="1"/>
<feColorMatrix type="matrix" values="0 0 0 0 0 0 0 0 0 0 0 0 0 0 0 0 0 0 0.1 0"/>
<feBlend mode="multiply" in2="effect2_innerShadow_2037_1027" result="effect3_innerShadow_2037_1027"/>
<feColorMatrix in="SourceAlpha" type="matrix" values="0 0 0 0 0 0 0 0 0 0 0 0 0 0 0 0 0 0 127 0" result="hardAlpha"/>
<feOffset dy="0.578081"/>
<feGaussianBlur stdDeviation="0.433561"/>
<feComposite in2="hardAlpha" operator="arithmetic" k2="-1" k3="1"/>
<feColorMatrix type="matrix" values="0 0 0 0 1 0 0 0 0 1 0 0 0 0 1 0 0 0 0.25 0"/>
<feBlend mode="normal" in2="effect3_innerShadow_2037_1027" result="effect4_innerShadow_2037_1027"/>
</filter>
<filter id="filter3_biii_2037_1027" x="27.5163" y="25.03" width="38.0146" height="39.5665" filterUnits="userSpaceOnUse" color-interpolation-filters="sRGB">
<feFlood flood-opacity="0" result="BackgroundImageFix"/>
<feGaussianBlur in="BackgroundImageFix" stdDeviation="4.62465"/>
<feComposite in2="SourceAlpha" operator="in" result="effect1_backgroundBlur_2037_1027"/>
<feBlend mode="normal" in="SourceGraphic" in2="effect1_backgroundBlur_2037_1027" result="shape"/>
<feColorMatrix in="SourceAlpha" type="matrix" values="0 0 0 0 0 0 0 0 0 0 0 0 0 0 0 0 0 0 127 0" result="hardAlpha"/>
<feOffset dx="0.578081" dy="-0.578081"/>
<feGaussianBlur stdDeviation="0.289041"/>
<feComposite in2="hardAlpha" operator="arithmetic" k2="-1" k3="1"/>
<feColorMatrix type="matrix" values="0 0 0 0 0 0 0 0 0 0 0 0 0 0 0 0 0 0 0.1 0"/>
<feBlend mode="multiply" in2="shape" result="effect2_innerShadow_2037_1027"/>
<feColorMatrix in="SourceAlpha" type="matrix" values="0 0 0 0 0 0 0 0 0 0 0 0 0 0 0 0 0 0 127 0" result="hardAlpha"/>
<feOffset dx="1.15616" dy="-1.15616"/>
<feGaussianBlur stdDeviation="1.73424"/>
<feComposite in2="hardAlpha" operator="arithmetic" k2="-1" k3="1"/>
<feColorMatrix type="matrix" values="0 0 0 0 0 0 0 0 0 0 0 0 0 0 0 0 0 0 0.1 0"/>
<feBlend mode="multiply" in2="effect2_innerShadow_2037_1027" result="effect3_innerShadow_2037_1027"/>
<feColorMatrix in="SourceAlpha" type="matrix" values="0 0 0 0 0 0 0 0 0 0 0 0 0 0 0 0 0 0 127 0" result="hardAlpha"/>
<feOffset dy="0.578081"/>
<feGaussianBlur stdDeviation="0.433561"/>
<feComposite in2="hardAlpha" operator="arithmetic" k2="-1" k3="1"/>
<feColorMatrix type="matrix" values="0 0 0 0 1 0 0 0 0 1 0 0 0 0 1 0 0 0 0.25 0"/>
<feBlend mode="normal" in2="effect3_innerShadow_2037_1027" result="effect4_innerShadow_2037_1027"/>
</filter>
<linearGradient id="paint0_linear_2037_1027" x1="55.1275" y1="1.1374" x2="58.7399" y2="105.294" gradientUnits="userSpaceOnUse">
<stop offset="0.318529" stop-color="#EFF7FF"/>
<stop offset="1" stop-color="#C7D8EB"/>
</linearGradient>
<linearGradient id="paint1_linear_2037_1027" x1="54.901" y1="40.4679" x2="56.3662" y2="106.824" gradientUnits="userSpaceOnUse">
<stop offset="0.318529" stop-color="#EFF7FF"/>
<stop offset="1" stop-color="#C7D8EB"/>
</linearGradient>
<linearGradient id="paint2_linear_2037_1027" x1="25.6688" y1="10.0603" x2="49.7759" y2="138.618" gradientUnits="userSpaceOnUse">
<stop offset="0.0511799" stop-color="#50E6FF"/>
<stop offset="0.49" stop-color="#007ED8"/>
<stop offset="1" stop-color="#002D4C"/>
</linearGradient>
<linearGradient id="paint3_linear_2037_1027" x1="39.3922" y1="31.3007" x2="39.5777" y2="77.4855" gradientUnits="userSpaceOnUse">
<stop offset="0.128125" stop-color="white"/>
<stop offset="0.927341" stop-color="#F1F9F9"/>
</linearGradient>
<linearGradient id="paint4_linear_2037_1027" x1="66.1882" y1="51.6111" x2="28.5048" y2="32.7694" gradientUnits="userSpaceOnUse">
<stop stop-color="#004DAE"/>
<stop offset="0.21" stop-color="#0061C4"/>
<stop offset="0.51" stop-color="#0078DD"/>
<stop offset="0.78" stop-color="#0086EC"/>
<stop offset="1" stop-color="#008BF1"/>
</linearGradient>
<linearGradient id="paint5_linear_2037_1027" x1="36.7706" y1="28.6716" x2="72.0483" y2="88.2228" gradientUnits="userSpaceOnUse">
<stop stop-color="#50E6FF"/>
<stop offset="0.62" stop-color="#0078D4"/>
</linearGradient>
<linearGradient id="paint6_linear_2037_1027" x1="36.963" y1="29.7848" x2="69.6009" y2="84.896" gradientUnits="userSpaceOnUse">
<stop stop-color="#50E6FF"/>
<stop offset="0.62" stop-color="#0078D4"/>
</linearGradient>
<linearGradient id="paint7_linear_2037_1027" x1="37.2566" y1="29.9771" x2="66.4152" y2="79.2222" gradientUnits="userSpaceOnUse">
<stop stop-color="#50E6FF"/>
<stop offset="0.62" stop-color="#0078D4"/>
</linearGradient>
<linearGradient id="paint8_linear_2037_1027" x1="33.5038" y1="32.2228" x2="63.0468" y2="82.1051" gradientUnits="userSpaceOnUse">
<stop stop-color="#50E6FF"/>
<stop offset="0.62" stop-color="#0078D4"/>
</linearGradient>
<linearGradient id="paint9_linear_2037_1027" x1="29.7313" y1="30.0482" x2="73.181" y2="103.415" gradientUnits="userSpaceOnUse">
<stop stop-color="#50E6FF"/>
<stop offset="0.62" stop-color="#0078D4"/>
</linearGradient>
<linearGradient id="paint10_linear_2037_1027" x1="19.6472" y1="40.4257" x2="49.1902" y2="90.3079" gradientUnits="userSpaceOnUse">
<stop stop-color="#50E6FF"/>
<stop offset="0.62" stop-color="#0078D4"/>
</linearGradient>
<linearGradient id="paint11_linear_2037_1027" x1="64.3313" y1="28.3783" x2="27.9209" y2="89.8613" gradientUnits="userSpaceOnUse">
<stop stop-color="#50E6FF"/>
<stop offset="0.62" stop-color="#0078D4"/>
</linearGradient>
<linearGradient id="paint12_linear_2037_1027" x1="64.0989" y1="29.7848" x2="31.4408" y2="84.9162" gradientUnits="userSpaceOnUse">
<stop stop-color="#50E6FF"/>
<stop offset="0.62" stop-color="#0078D4"/>
</linearGradient>
<linearGradient id="paint13_linear_2037_1027" x1="63.8054" y1="29.9872" x2="34.5253" y2="79.4042" gradientUnits="userSpaceOnUse">
<stop stop-color="#50E6FF"/>
<stop offset="0.62" stop-color="#0078D4"/>
</linearGradient>
<linearGradient id="paint14_linear_2037_1027" x1="67.467" y1="32.3335" x2="37.924" y2="82.2158" gradientUnits="userSpaceOnUse">
<stop stop-color="#50E6FF"/>
<stop offset="0.62" stop-color="#0078D4"/>
</linearGradient>
<linearGradient id="paint15_linear_2037_1027" x1="71.3097" y1="29.9875" x2="27.6677" y2="103.658" gradientUnits="userSpaceOnUse">
<stop stop-color="#50E6FF"/>
<stop offset="0.62" stop-color="#0078D4"/>
</linearGradient>
<linearGradient id="paint16_linear_2037_1027" x1="81.4043" y1="40.4247" x2="51.8613" y2="90.3069" gradientUnits="userSpaceOnUse">
<stop stop-color="#50E6FF"/>
<stop offset="0.62" stop-color="#0078D4"/>
</linearGradient>
<linearGradient id="paint17_linear_2037_1027" x1="26.0602" y1="36.6217" x2="55.6133" y2="86.504" gradientUnits="userSpaceOnUse">
<stop stop-color="#50E6FF"/>
<stop offset="0.62" stop-color="#0078D4"/>
</linearGradient>
<linearGradient id="paint18_linear_2037_1027" x1="23.2492" y1="38.2909" x2="52.7922" y2="88.1731" gradientUnits="userSpaceOnUse">
<stop stop-color="#50E6FF"/>
<stop offset="0.62" stop-color="#0078D4"/>
</linearGradient>
<linearGradient id="paint19_linear_2037_1027" x1="21.9537" y1="39.0594" x2="51.4967" y2="88.9416" gradientUnits="userSpaceOnUse">
<stop stop-color="#50E6FF"/>
<stop offset="0.62" stop-color="#0078D4"/>
</linearGradient>
<linearGradient id="paint20_linear_2037_1027" x1="74.9912" y1="36.6217" x2="45.4482" y2="86.5039" gradientUnits="userSpaceOnUse">
<stop stop-color="#50E6FF"/>
<stop offset="0.62" stop-color="#0078D4"/>
</linearGradient>
<linearGradient id="paint21_linear_2037_1027" x1="77.8035" y1="38.2902" x2="48.2605" y2="88.1724" gradientUnits="userSpaceOnUse">
<stop stop-color="#50E6FF"/>
<stop offset="0.62" stop-color="#0078D4"/>
</linearGradient>
<linearGradient id="paint22_linear_2037_1027" x1="79.1087" y1="39.0594" x2="49.5657" y2="88.9417" gradientUnits="userSpaceOnUse">
<stop stop-color="#50E6FF"/>
<stop offset="0.62" stop-color="#0078D4"/>
</linearGradient>
<linearGradient id="paint23_linear_2037_1027" x1="18.2925" y1="14.0779" x2="79.7351" y2="117.807" gradientUnits="userSpaceOnUse">
<stop stop-color="#50E6FF"/>
<stop offset="0.62" stop-color="#0078D4"/>
</linearGradient>
<linearGradient id="paint24_linear_2037_1027" x1="24.3814" y1="28.0046" x2="67.5783" y2="100.937" gradientUnits="userSpaceOnUse">
<stop stop-color="#50E6FF"/>
<stop offset="0.62" stop-color="#0078D4"/>
</linearGradient>
<linearGradient id="paint25_linear_2037_1027" x1="82.1423" y1="15.1196" x2="22.3584" y2="116.047" gradientUnits="userSpaceOnUse">
<stop stop-color="#50E6FF"/>
<stop offset="0.62" stop-color="#0078D4"/>
</linearGradient>
<linearGradient id="paint26_linear_2037_1027" x1="76.3071" y1="28.6318" x2="34.3037" y2="99.541" gradientUnits="userSpaceOnUse">
<stop stop-color="#50E6FF"/>
<stop offset="0.62" stop-color="#0078D4"/>
</linearGradient>
</defs>
</svg>
